<?xml version="1.0" encoding="UTF-8" standalone="no"?>
<!-- Created with PhysiCell (http://PhysiCell.MathCancer.org/) -->
<svg 
 xmlns:dc="http://purl.org/dc/elements/1.1/" 
 xmlns:cc="http://creativecommons.org/ns#" 
 xmlns:rdf="http://www.w3.org/1999/02/22-rdf-syntax-ns#" 
 xmlns:svg="http://www.w3.org/2000/svg" 
 xmlns="http://www.w3.org/2000/svg" 
 version="1.1" 
 width="960" 
 height="1027.2" 
 id="svg2">
  <rect x="0" y="0" width="960" height="1027.2" stroke-width="1.92" stroke="white" fill="white"/>
  <text x="12" y="28.8"
   font-family="Arial" font-size="24" fill="black" >
   Current time: 6 days, 0 hours, and 0.01 minutes, z = 0.00 &#956;m
  </text>
  <text x="12" y="55.2"
   font-family="Arial" font-size="22.8" fill="black" >
   942 agents
  </text>
 <g id="tissue" 
    transform="translate(0,1027.2) scale(1,-1)">
  <g id="ECM">
  </g>
  <g id="cells">
   <g id="cell39">
  <circle cx="413.566" cy="506.299" r="3.00891" stroke-width="0.5" stroke="rgb(0,0,0)" fill="red"/>
   </g>
   <g id="cell40">
  <circle cx="426.919" cy="436.986" r="7.37629" stroke-width="0.5" stroke="rgb(0,0,0)" fill="red"/>
  <circle cx="426.919" cy="436.986" r="3.02577" stroke-width="0.5" stroke="rgb(0,0,0)" fill="red"/>
   </g>
   <g id="cell42">
  <circle cx="432.2" cy="485.794" r="8.21696" stroke-width="0.5" stroke="rgb(0,0,0)" fill="red"/>
  <circle cx="432.2" cy="485.794" r="4.83744" stroke-width="0.5" stroke="rgb(0,0,0)" fill="red"/>
   </g>
   <g id="cell43">
  <circle cx="429.288" cy="513.789" r="7.97691" stroke-width="0.5" stroke="rgb(0,0,0)" fill="red"/>
  <circle cx="429.288" cy="513.789" r="4.28682" stroke-width="0.5" stroke="rgb(0,0,0)" fill="red"/>
   </g>
   <g id="cell45">
  <circle cx="454.43" cy="447.345" r="6.37062" stroke-width="0.5" stroke="rgb(0,0,0)" fill="red"/>
   </g>
   <g id="cell53">
  <circle cx="467.295" cy="544.155" r="8.16785" stroke-width="0.5" stroke="rgb(0,0,0)" fill="red"/>
  <circle cx="467.295" cy="544.155" r="4.63244" stroke-width="0.5" stroke="rgb(0,0,0)" fill="red"/>
   </g>
   <g id="cell56">
  <circle cx="487.544" cy="453.063" r="5.69892" stroke-width="0.5" stroke="rgb(0,0,0)" fill="red"/>
   </g>
   <g id="cell58">
  <circle cx="501.836" cy="560.219" r="8.09201" stroke-width="0.5" stroke="rgb(0,0,0)" fill="red"/>
  <circle cx="501.836" cy="560.219" r="4.87493" stroke-width="0.5" stroke="rgb(0,0,0)" fill="red"/>
   </g>
   <g id="cell59">
  <circle cx="535.568" cy="415.449" r="8.35028" stroke-width="0.5" stroke="rgb(0,0,0)" fill="red"/>
  <circle cx="535.568" cy="415.449" r="4.94701" stroke-width="0.5" stroke="rgb(0,0,0)" fill="red"/>
   </g>
   <g id="cell60">
  <circle cx="543.747" cy="436.554" r="7.75674" stroke-width="0.5" stroke="rgb(0,0,0)" fill="red"/>
  <circle cx="543.747" cy="436.554" r="3.86169" stroke-width="0.5" stroke="rgb(0,0,0)" fill="red"/>
   </g>
   <g id="cell62">
  <circle cx="541.626" cy="494.201" r="7.51445" stroke-width="0.5" stroke="rgb(0,0,0)" fill="red"/>
  <circle cx="541.626" cy="494.201" r="3.34853" stroke-width="0.5" stroke="rgb(0,0,0)" fill="red"/>
   </g>
   <g id="cell63">
  <circle cx="571.213" cy="457.671" r="8.12671" stroke-width="0.5" stroke="rgb(0,0,0)" fill="red"/>
  <circle cx="571.213" cy="457.671" r="4.55951" stroke-width="0.5" stroke="rgb(0,0,0)" fill="red"/>
   </g>
   <g id="cell67">
  <circle cx="424.127" cy="528.738" r="8.17478" stroke-width="0.5" stroke="rgb(0,0,0)" fill="red"/>
  <circle cx="424.127" cy="528.738" r="4.64465" stroke-width="0.5" stroke="rgb(0,0,0)" fill="red"/>
   </g>
   <g id="cell75">
  <circle cx="466.807" cy="457.078" r="8.39428" stroke-width="0.5" stroke="rgb(0,0,0)" fill="red"/>
  <circle cx="466.807" cy="457.078" r="5.02165" stroke-width="0.5" stroke="rgb(0,0,0)" fill="red"/>
   </g>
   <g id="cell114">
  <circle cx="456.592" cy="518.358" r="6.52822" stroke-width="0.5" stroke="rgb(0,0,0)" fill="red"/>
   </g>
   <g id="cell155">
  <circle cx="422.968" cy="542.781" r="5.05259" stroke-width="0.5" stroke="rgb(0,0,0)" fill="red"/>
   </g>
   <g id="cell156">
  <circle cx="515.742" cy="396.156" r="8.34406" stroke-width="0.5" stroke="rgb(0,0,0)" fill="red"/>
  <circle cx="515.742" cy="396.156" r="4.93649" stroke-width="0.5" stroke="rgb(0,0,0)" fill="red"/>
   </g>
   <g id="cell179">
  <circle cx="483.473" cy="390.656" r="8.02538" stroke-width="0.5" stroke="rgb(0,0,0)" fill="red"/>
  <circle cx="483.473" cy="390.656" r="4.38067" stroke-width="0.5" stroke="rgb(0,0,0)" fill="red"/>
   </g>
   <g id="cell193">
  <circle cx="523.763" cy="538.375" r="6.93176" stroke-width="0.5" stroke="rgb(0,0,0)" fill="red"/>
  <circle cx="523.763" cy="538.375" r="1.6774" stroke-width="0.5" stroke="rgb(0,0,0)" fill="red"/>
   </g>
   <g id="cell197">
  <circle cx="437.796" cy="539.339" r="3.87003" stroke-width="0.5" stroke="rgb(0,0,0)" fill="red"/>
   </g>
   <g id="cell202">
  <circle cx="485.989" cy="562.019" r="8.02363" stroke-width="0.5" stroke="rgb(0,0,0)" fill="red"/>
  <circle cx="485.989" cy="562.019" r="4.37441" stroke-width="0.5" stroke="rgb(0,0,0)" fill="red"/>
   </g>
   <g id="cell203">
  <circle cx="564.536" cy="482.314" r="8.38617" stroke-width="0.5" stroke="rgb(0,0,0)" fill="red"/>
  <circle cx="564.536" cy="482.314" r="5.02668" stroke-width="0.5" stroke="rgb(0,0,0)" fill="red"/>
   </g>
   <g id="cell209">
  <circle cx="502.121" cy="449.951" r="5.52036" stroke-width="0.5" stroke="rgb(0,0,0)" fill="red"/>
   </g>
   <g id="cell222">
  <circle cx="431.756" cy="410.554" r="6.79477" stroke-width="0.5" stroke="rgb(0,0,0)" fill="red"/>
  <circle cx="431.756" cy="410.554" r="3.83429" stroke-width="0.5" stroke="rgb(0,0,0)" fill="red"/>
   </g>
   <g id="cell226">
  <circle cx="410.687" cy="462.578" r="5.14908" stroke-width="0.5" stroke="rgb(0,0,0)" fill="red"/>
   </g>
   <g id="cell228">
  <circle cx="557.315" cy="496.719" r="1.3896" stroke-width="0.5" stroke="rgb(0,0,0)" fill="red"/>
   </g>
   <g id="cell235">
  <circle cx="528.084" cy="524.91" r="5.4451" stroke-width="0.5" stroke="rgb(0,0,0)" fill="red"/>
   </g>
   <g id="cell246">
  <circle cx="460.121" cy="432.261" r="8.09501" stroke-width="0.5" stroke="rgb(0,0,0)" fill="red"/>
  <circle cx="460.121" cy="432.261" r="4.50277" stroke-width="0.5" stroke="rgb(0,0,0)" fill="red"/>
   </g>
   <g id="cell249">
  <circle cx="504.378" cy="430.772" r="8.38258" stroke-width="0.5" stroke="rgb(0,0,0)" fill="red"/>
  <circle cx="504.378" cy="430.772" r="5.00135" stroke-width="0.5" stroke="rgb(0,0,0)" fill="red"/>
   </g>
   <g id="cell251">
  <circle cx="386.03" cy="460.108" r="0.866602" stroke-width="0.5" stroke="rgb(0,0,0)" fill="red"/>
   </g>
   <g id="cell264">
  <circle cx="450.014" cy="483.963" r="5.5738" stroke-width="0.5" stroke="rgb(0,0,0)" fill="red"/>
   </g>
   <g id="cell272">
  <circle cx="561.036" cy="446.529" r="7.41869" stroke-width="0.5" stroke="rgb(0,0,0)" fill="red"/>
  <circle cx="561.036" cy="446.529" r="3.42545" stroke-width="0.5" stroke="rgb(0,0,0)" fill="red"/>
   </g>
   <g id="cell275">
  <circle cx="495.461" cy="537.974" r="8.07549" stroke-width="0.5" stroke="rgb(0,0,0)" fill="red"/>
  <circle cx="495.461" cy="537.974" r="4.46758" stroke-width="0.5" stroke="rgb(0,0,0)" fill="red"/>
   </g>
   <g id="cell280">
  <circle cx="506.486" cy="533.126" r="1.04339" stroke-width="0.5" stroke="rgb(0,0,0)" fill="red"/>
   </g>
   <g id="cell291">
  <circle cx="499.256" cy="392.929" r="8.18869" stroke-width="0.5" stroke="rgb(0,0,0)" fill="red"/>
  <circle cx="499.256" cy="392.929" r="4.66909" stroke-width="0.5" stroke="rgb(0,0,0)" fill="red"/>
   </g>
   <g id="cell292">
  <circle cx="452.184" cy="546.469" r="1.21059" stroke-width="0.5" stroke="rgb(0,0,0)" fill="red"/>
   </g>
   <g id="cell294">
  <circle cx="470.805" cy="421.243" r="7.71891" stroke-width="0.5" stroke="rgb(0,0,0)" fill="red"/>
  <circle cx="470.805" cy="421.243" r="3.78513" stroke-width="0.5" stroke="rgb(0,0,0)" fill="red"/>
   </g>
   <g id="cell313">
  <circle cx="466.891" cy="524.955" r="6.03985" stroke-width="0.5" stroke="rgb(0,0,0)" fill="red"/>
  <circle cx="466.891" cy="524.955" r="0.908089" stroke-width="0.5" stroke="rgb(0,0,0)" fill="red"/>
   </g>
   <g id="cell317">
  <circle cx="548.558" cy="421.684" r="4.29425" stroke-width="0.5" stroke="rgb(0,0,0)" fill="red"/>
   </g>
   <g id="cell322">
  <circle cx="529.64" cy="428.932" r="5.34045" stroke-width="0.5" stroke="rgb(0,0,0)" fill="red"/>
   </g>
   <g id="cell325">
  <circle cx="470.752" cy="441.683" r="4.9296" stroke-width="0.5" stroke="rgb(0,0,0)" fill="red"/>
   </g>
   <g id="cell331">
  <circle cx="496.353" cy="519.706" r="4.58534" stroke-width="0.5" stroke="rgb(0,0,0)" fill="red"/>
   </g>
   <g id="cell334">
  <circle cx="438.29" cy="500.901" r="8.36823" stroke-width="0.5" stroke="rgb(0,0,0)" fill="red"/>
  <circle cx="438.29" cy="500.901" r="4.97724" stroke-width="0.5" stroke="rgb(0,0,0)" fill="red"/>
   </g>
   <g id="cell343">
  <circle cx="553.695" cy="492.038" r="4.40635" stroke-width="0.5" stroke="rgb(0,0,0)" fill="red"/>
   </g>
   <g id="cell346">
  <circle cx="513.078" cy="462.014" r="7.15114" stroke-width="0.5" stroke="rgb(0,0,0)" fill="red"/>
  <circle cx="513.078" cy="462.014" r="4.31085" stroke-width="0.5" stroke="rgb(0,0,0)" fill="red"/>
   </g>
   <g id="cell360">
  <circle cx="401.809" cy="511.037" r="8.03124" stroke-width="0.5" stroke="rgb(0,0,0)" fill="red"/>
  <circle cx="401.809" cy="511.037" r="4.38708" stroke-width="0.5" stroke="rgb(0,0,0)" fill="red"/>
   </g>
   <g id="cell362">
  <circle cx="500.879" cy="507.126" r="8.18074" stroke-width="0.5" stroke="rgb(0,0,0)" fill="red"/>
  <circle cx="500.879" cy="507.126" r="4.7165" stroke-width="0.5" stroke="rgb(0,0,0)" fill="red"/>
   </g>
   <g id="cell363">
  <circle cx="505.225" cy="477.077" r="4.33567" stroke-width="0.5" stroke="rgb(0,0,0)" fill="red"/>
   </g>
   <g id="cell370">
  <circle cx="439.156" cy="452.472" r="5.82903" stroke-width="0.5" stroke="rgb(0,0,0)" fill="red"/>
   </g>
   <g id="cell402">
  <circle cx="490.539" cy="439.765" r="6.42709" stroke-width="0.5" stroke="rgb(0,0,0)" fill="red"/>
  <circle cx="490.539" cy="439.765" r="1.27776" stroke-width="0.5" stroke="rgb(0,0,0)" fill="red"/>
   </g>
   <g id="cell407">
  <circle cx="441.238" cy="439.712" r="7.59548" stroke-width="0.5" stroke="rgb(0,0,0)" fill="red"/>
  <circle cx="441.238" cy="439.712" r="3.53979" stroke-width="0.5" stroke="rgb(0,0,0)" fill="red"/>
   </g>
   <g id="cell417">
  <circle cx="456.156" cy="416.353" r="8.28987" stroke-width="0.5" stroke="rgb(0,0,0)" fill="red"/>
  <circle cx="456.156" cy="416.353" r="4.92372" stroke-width="0.5" stroke="rgb(0,0,0)" fill="red"/>
   </g>
   <g id="cell418">
  <circle cx="452.113" cy="455.202" r="2.88349" stroke-width="0.5" stroke="rgb(0,0,0)" fill="red"/>
   </g>
   <g id="cell423">
  <circle cx="545.031" cy="516.05" r="8.39766" stroke-width="0.5" stroke="rgb(0,0,0)" fill="red"/>
  <circle cx="545.031" cy="516.05" r="5.02658" stroke-width="0.5" stroke="rgb(0,0,0)" fill="red"/>
   </g>
   <g id="cell443">
  <circle cx="519.761" cy="412.376" r="8.04862" stroke-width="0.5" stroke="rgb(0,0,0)" fill="red"/>
  <circle cx="519.761" cy="412.376" r="4.42582" stroke-width="0.5" stroke="rgb(0,0,0)" fill="red"/>
   </g>
   <g id="cell447">
  <circle cx="535.806" cy="481.701" r="6.59359" stroke-width="0.5" stroke="rgb(0,0,0)" fill="red"/>
   </g>
   <g id="cell448">
  <circle cx="558.399" cy="522.696" r="3.93098" stroke-width="0.5" stroke="rgb(0,0,0)" fill="red"/>
   </g>
   <g id="cell456">
  <circle cx="453.281" cy="561.87" r="2.37794" stroke-width="0.5" stroke="rgb(0,0,0)" fill="red"/>
   </g>
   <g id="cell463">
  <circle cx="463.579" cy="472.298" r="6.13797" stroke-width="0.5" stroke="rgb(0,0,0)" fill="red"/>
   </g>
   <g id="cell465">
  <circle cx="441.818" cy="475.729" r="5.49334" stroke-width="0.5" stroke="rgb(0,0,0)" fill="red"/>
   </g>
   <g id="cell470">
  <circle cx="490.486" cy="481.359" r="7.86828" stroke-width="0.5" stroke="rgb(0,0,0)" fill="red"/>
  <circle cx="490.486" cy="481.359" r="4.08123" stroke-width="0.5" stroke="rgb(0,0,0)" fill="red"/>
   </g>
   <g id="cell472">
  <circle cx="486.561" cy="421.139" r="7.5975" stroke-width="0.5" stroke="rgb(0,0,0)" fill="red"/>
  <circle cx="486.561" cy="421.139" r="4.21405" stroke-width="0.5" stroke="rgb(0,0,0)" fill="red"/>
   </g>
   <g id="cell481">
  <circle cx="509.525" cy="546.005" r="8.24103" stroke-width="0.5" stroke="rgb(0,0,0)" fill="red"/>
  <circle cx="509.525" cy="546.005" r="4.7603" stroke-width="0.5" stroke="rgb(0,0,0)" fill="red"/>
   </g>
   <g id="cell482">
  <circle cx="530.573" cy="504.478" r="5.3383" stroke-width="0.5" stroke="rgb(0,0,0)" fill="red"/>
   </g>
   <g id="cell488">
  <circle cx="533.188" cy="549.603" r="7.68549" stroke-width="0.5" stroke="rgb(0,0,0)" fill="red"/>
  <circle cx="533.188" cy="549.603" r="3.71653" stroke-width="0.5" stroke="rgb(0,0,0)" fill="red"/>
   </g>
   <g id="cell490">
  <circle cx="519.752" cy="483.213" r="1.72607" stroke-width="0.5" stroke="rgb(0,0,0)" fill="red"/>
   </g>
   <g id="cell493">
  <circle cx="477.022" cy="431.744" r="4.41671" stroke-width="0.5" stroke="rgb(0,0,0)" fill="red"/>
   </g>
   <g id="cell504">
  <circle cx="467.446" cy="405.104" r="6.77177" stroke-width="0.5" stroke="rgb(0,0,0)" fill="red"/>
  <circle cx="467.446" cy="405.104" r="1.05769" stroke-width="0.5" stroke="rgb(0,0,0)" fill="red"/>
   </g>
   <g id="cell507">
  <circle cx="488.347" cy="497.315" r="8.33759" stroke-width="0.5" stroke="rgb(0,0,0)" fill="red"/>
  <circle cx="488.347" cy="497.315" r="4.92561" stroke-width="0.5" stroke="rgb(0,0,0)" fill="red"/>
   </g>
   <g id="cell511">
  <circle cx="482.379" cy="514.794" r="4.17101" stroke-width="0.5" stroke="rgb(0,0,0)" fill="red"/>
   </g>
   <g id="cell516">
  <circle cx="398.438" cy="494.964" r="7.09098" stroke-width="0.5" stroke="rgb(0,0,0)" fill="red"/>
  <circle cx="398.438" cy="494.964" r="2.24237" stroke-width="0.5" stroke="rgb(0,0,0)" fill="red"/>
   </g>
   <g id="cell520">
  <circle cx="522.603" cy="472.724" r="7.47955" stroke-width="0.5" stroke="rgb(0,0,0)" fill="red"/>
  <circle cx="522.603" cy="472.724" r="3.26954" stroke-width="0.5" stroke="rgb(0,0,0)" fill="red"/>
   </g>
   <g id="cell533">
  <circle cx="537.163" cy="451.983" r="6.94278" stroke-width="0.5" stroke="rgb(0,0,0)" fill="red"/>
  <circle cx="537.163" cy="451.983" r="1.71737" stroke-width="0.5" stroke="rgb(0,0,0)" fill="red"/>
   </g>
   <g id="cell542">
  <circle cx="517.179" cy="439.602" r="6.96983" stroke-width="0.5" stroke="rgb(0,0,0)" fill="red"/>
  <circle cx="517.179" cy="439.602" r="1.84278" stroke-width="0.5" stroke="rgb(0,0,0)" fill="red"/>
   </g>
   <g id="cell558">
  <circle cx="495.588" cy="465.357" r="8.29487" stroke-width="0.5" stroke="rgb(0,0,0)" fill="red"/>
  <circle cx="495.588" cy="465.357" r="4.85306" stroke-width="0.5" stroke="rgb(0,0,0)" fill="red"/>
   </g>
   <g id="cell559">
  <circle cx="521.958" cy="555.37" r="4.69735" stroke-width="0.5" stroke="rgb(0,0,0)" fill="red"/>
   </g>
   <g id="cell563">
  <circle cx="516.989" cy="505.297" r="8.27965" stroke-width="0.5" stroke="rgb(0,0,0)" fill="red"/>
  <circle cx="516.989" cy="505.297" r="4.82707" stroke-width="0.5" stroke="rgb(0,0,0)" fill="red"/>
   </g>
   <g id="cell565">
  <circle cx="472.223" cy="501.01" r="8.33511" stroke-width="0.5" stroke="rgb(0,0,0)" fill="red"/>
  <circle cx="472.223" cy="501.01" r="4.92165" stroke-width="0.5" stroke="rgb(0,0,0)" fill="red"/>
   </g>
   <g id="cell573">
  <circle cx="550.612" cy="537.09" r="7.22479" stroke-width="0.5" stroke="rgb(0,0,0)" fill="red"/>
  <circle cx="550.612" cy="537.09" r="2.63578" stroke-width="0.5" stroke="rgb(0,0,0)" fill="red"/>
   </g>
   <g id="cell583">
  <circle cx="459.532" cy="482.285" r="4.92724" stroke-width="0.5" stroke="rgb(0,0,0)" fill="red"/>
   </g>
   <g id="cell620">
  <circle cx="453.043" cy="464.438" r="6.77842" stroke-width="0.5" stroke="rgb(0,0,0)" fill="red"/>
  <circle cx="453.043" cy="464.438" r="0.843122" stroke-width="0.5" stroke="rgb(0,0,0)" fill="red"/>
   </g>
   <g id="cell627">
  <circle cx="474.791" cy="481.045" r="8.00706" stroke-width="0.5" stroke="rgb(0,0,0)" fill="red"/>
  <circle cx="474.791" cy="481.045" r="4.54134" stroke-width="0.5" stroke="rgb(0,0,0)" fill="red"/>
   </g>
   <g id="cell638">
  <circle cx="408.326" cy="451.638" r="5.51344" stroke-width="0.5" stroke="rgb(0,0,0)" fill="red"/>
   </g>
   <g id="cell641">
  <circle cx="507.445" cy="494.41" r="6.41041" stroke-width="0.5" stroke="rgb(0,0,0)" fill="red"/>
   </g>
   <g id="cell646">
  <circle cx="482.771" cy="545.999" r="7.66073" stroke-width="0.5" stroke="rgb(0,0,0)" fill="red"/>
  <circle cx="482.771" cy="545.999" r="3.67243" stroke-width="0.5" stroke="rgb(0,0,0)" fill="red"/>
   </g>
   <g id="cell654">
  <circle cx="454.99" cy="533.549" r="8.38453" stroke-width="0.5" stroke="rgb(0,0,0)" fill="red"/>
  <circle cx="454.99" cy="533.549" r="5.01094" stroke-width="0.5" stroke="rgb(0,0,0)" fill="red"/>
   </g>
   <g id="cell656">
  <circle cx="413.049" cy="490.473" r="8.26317" stroke-width="0.5" stroke="rgb(0,0,0)" fill="red"/>
  <circle cx="413.049" cy="490.473" r="4.80554" stroke-width="0.5" stroke="rgb(0,0,0)" fill="red"/>
   </g>
   <g id="cell673">
  <circle cx="523.973" cy="490.554" r="6.38328" stroke-width="0.5" stroke="rgb(0,0,0)" fill="red"/>
   </g>
   <g id="cell677">
  <circle cx="441.817" cy="424.347" r="8.25766" stroke-width="0.5" stroke="rgb(0,0,0)" fill="red"/>
  <circle cx="441.817" cy="424.347" r="4.79872" stroke-width="0.5" stroke="rgb(0,0,0)" fill="red"/>
   </g>
   <g id="cell679">
  <circle cx="448.01" cy="554.561" r="6.5356" stroke-width="0.5" stroke="rgb(0,0,0)" fill="red"/>
   </g>
   <g id="cell690">
  <circle cx="456.483" cy="502.803" r="6.11226" stroke-width="0.5" stroke="rgb(0,0,0)" fill="red"/>
   </g>
   <g id="cell697">
  <circle cx="540.923" cy="466.204" r="7.83026" stroke-width="0.5" stroke="rgb(0,0,0)" fill="red"/>
  <circle cx="540.923" cy="466.204" r="4.02842" stroke-width="0.5" stroke="rgb(0,0,0)" fill="red"/>
   </g>
   <g id="cell703">
  <circle cx="577.524" cy="491.592" r="7.36695" stroke-width="0.5" stroke="rgb(0,0,0)" fill="red"/>
  <circle cx="577.524" cy="491.592" r="3.03505" stroke-width="0.5" stroke="rgb(0,0,0)" fill="red"/>
   </g>
   <g id="cell704">
  <circle cx="549.034" cy="479.804" r="7.21114" stroke-width="0.5" stroke="rgb(0,0,0)" fill="red"/>
  <circle cx="549.034" cy="479.804" r="2.63441" stroke-width="0.5" stroke="rgb(0,0,0)" fill="red"/>
   </g>
   <g id="cell707">
  <circle cx="418.956" cy="474.914" r="8.16252" stroke-width="0.5" stroke="rgb(0,0,0)" fill="red"/>
  <circle cx="418.956" cy="474.914" r="4.64712" stroke-width="0.5" stroke="rgb(0,0,0)" fill="red"/>
   </g>
   <g id="cell709">
  <circle cx="436.145" cy="532.6" r="3.90898" stroke-width="0.5" stroke="rgb(0,0,0)" fill="red"/>
   </g>
   <g id="cell730">
  <circle cx="536.93" cy="528.676" r="4.789" stroke-width="0.5" stroke="rgb(0,0,0)" fill="red"/>
   </g>
   <g id="cell734">
  <circle cx="385.893" cy="473.952" r="4.29621" stroke-width="0.5" stroke="rgb(0,0,0)" fill="red"/>
   </g>
   <g id="cell750">
  <circle cx="455.574" cy="393.75" r="6.46273" stroke-width="0.5" stroke="rgb(0,0,0)" fill="red"/>
   </g>
   <g id="cell753">
  <circle cx="488.608" cy="405.467" r="7.96042" stroke-width="0.5" stroke="rgb(0,0,0)" fill="red"/>
  <circle cx="488.608" cy="405.467" r="4.31796" stroke-width="0.5" stroke="rgb(0,0,0)" fill="red"/>
   </g>
   <g id="cell765">
  <circle cx="434.322" cy="464.976" r="7.81352" stroke-width="0.5" stroke="rgb(0,0,0)" fill="red"/>
  <circle cx="434.322" cy="464.976" r="4.05441" stroke-width="0.5" stroke="rgb(0,0,0)" fill="red"/>
   </g>
   <g id="cell774">
  <circle cx="423.183" cy="452.916" r="7.26211" stroke-width="0.5" stroke="rgb(0,0,0)" fill="red"/>
  <circle cx="423.183" cy="452.916" r="3.01743" stroke-width="0.5" stroke="rgb(0,0,0)" fill="red"/>
   </g>
   <g id="cell786">
  <circle cx="402.317" cy="474.265" r="8.26926" stroke-width="0.5" stroke="rgb(0,0,0)" fill="red"/>
  <circle cx="402.317" cy="474.265" r="4.9338" stroke-width="0.5" stroke="rgb(0,0,0)" fill="red"/>
   </g>
   <g id="cell809">
  <circle cx="464.708" cy="489.672" r="5.80595" stroke-width="0.5" stroke="rgb(0,0,0)" fill="red"/>
   </g>
   <g id="cell813">
  <circle cx="557.059" cy="468.424" r="7.1833" stroke-width="0.5" stroke="rgb(0,0,0)" fill="red"/>
  <circle cx="557.059" cy="468.424" r="4.3363" stroke-width="0.5" stroke="rgb(0,0,0)" fill="red"/>
   </g>
   <g id="cell815">
  <circle cx="439.191" cy="523.826" r="6.07677" stroke-width="0.5" stroke="rgb(0,0,0)" fill="red"/>
   </g>
   <g id="cell816">
  <circle cx="479.692" cy="466.24" r="7.63901" stroke-width="0.5" stroke="rgb(0,0,0)" fill="red"/>
  <circle cx="479.692" cy="466.24" r="3.90061" stroke-width="0.5" stroke="rgb(0,0,0)" fill="red"/>
   </g>
   <g id="cell822">
  <circle cx="412.725" cy="436.324" r="7.23927" stroke-width="0.5" stroke="rgb(0,0,0)" fill="red"/>
  <circle cx="412.725" cy="436.324" r="3.06376" stroke-width="0.5" stroke="rgb(0,0,0)" fill="red"/>
   </g>
   <g id="cell839">
  <circle cx="388.683" cy="458.173" r="2.99707" stroke-width="0.5" stroke="rgb(0,0,0)" fill="red"/>
   </g>
   <g id="cell841">
  <circle cx="514.779" cy="525.081" r="7.74183" stroke-width="0.5" stroke="rgb(0,0,0)" fill="red"/>
  <circle cx="514.779" cy="525.081" r="4.33301" stroke-width="0.5" stroke="rgb(0,0,0)" fill="red"/>
   </g>
   <g id="cell856">
  <circle cx="471.509" cy="514.696" r="6.45563" stroke-width="0.5" stroke="rgb(0,0,0)" fill="red"/>
  <circle cx="471.509" cy="514.696" r="3.05924" stroke-width="0.5" stroke="rgb(0,0,0)" fill="red"/>
   </g>
   <g id="cell860">
  <circle cx="484.48" cy="527.656" r="7.90822" stroke-width="0.5" stroke="rgb(0,0,0)" fill="red"/>
  <circle cx="484.48" cy="527.656" r="4.76623" stroke-width="0.5" stroke="rgb(0,0,0)" fill="red"/>
   </g>
   <g id="cell868">
  <circle cx="433.925" cy="553.221" r="7.53717" stroke-width="0.5" stroke="rgb(0,0,0)" fill="red"/>
  <circle cx="433.925" cy="553.221" r="4.22854" stroke-width="0.5" stroke="rgb(0,0,0)" fill="red"/>
   </g>
   <g id="cell893">
  <circle cx="446.629" cy="490.092" r="2.95405" stroke-width="0.5" stroke="rgb(0,0,0)" fill="red"/>
   </g>
   <g id="cell904">
  <circle cx="551.364" cy="456.381" r="6.72624" stroke-width="0.5" stroke="rgb(0,0,0)" fill="red"/>
  <circle cx="551.364" cy="456.381" r="3.52788" stroke-width="0.5" stroke="rgb(0,0,0)" fill="red"/>
   </g>
   <g id="cell925">
  <circle cx="424.837" cy="498.224" r="5.64096" stroke-width="0.5" stroke="rgb(0,0,0)" fill="red"/>
  <circle cx="424.837" cy="498.224" r="2.03733" stroke-width="0.5" stroke="rgb(0,0,0)" fill="red"/>
   </g>
   <g id="cell930">
  <circle cx="410.847" cy="522.58" r="6.57863" stroke-width="0.5" stroke="rgb(0,0,0)" fill="red"/>
  <circle cx="410.847" cy="522.58" r="3.74041" stroke-width="0.5" stroke="rgb(0,0,0)" fill="red"/>
   </g>
  </g>
 </g>
  <rect x="736" y="993.6" width="200" height="9.6" stroke-width="1.92" stroke="rgb(255,255,255)" fill="rgb(0,0,0)"/>
  <text x="742" y="987.6"
   font-family="Arial" font-size="24" fill="black" >
   200 &#956;m
  </text>
  <text x="24" y="1003.2"
   font-family="Arial" font-size="18" fill="black" >
   0 days, 0 hours, 12 minutes, and 15.9181 seconds
  </text>
  <rect x="0" y="67.2" width="960" height="960" stroke-width="1.92" stroke="rgb(0,0,0)" fill="none"/>
</svg>
